<svg width="21" height="20" viewBox="0 0 21 20" fill="none" xmlns="http://www.w3.org/2000/svg">
<path d="M17.0621 7.45739C16.9857 7.50195 15.1671 8.44248 15.1671 10.5279C15.2528 12.9061 17.4621 13.7401 17.5 13.7401C17.4621 13.7847 17.1665 14.8763 16.2907 16.0205C15.5956 17.0062 14.8242 18 13.6528 18C12.5385 18 12.1385 17.3431 10.8528 17.3431C9.47203 17.3431 9.08135 18 8.0242 18C6.85277 18 6.02419 16.953 5.29127 15.9766C4.3391 14.6986 3.52978 12.6931 3.50121 10.7675C3.48195 9.74707 3.69189 8.74403 4.22481 7.89206C4.97699 6.70265 6.31985 5.89524 7.78631 5.86862C8.90992 5.83331 9.90992 6.58747 10.5956 6.58747C11.2528 6.58747 12.4814 5.86862 13.8714 5.86862C14.4714 5.86919 16.0714 6.03762 17.0621 7.45739ZM10.5006 5.66488C10.3006 4.73303 10.8528 3.80119 11.3671 3.20677C12.0242 2.48792 13.0621 2 13.9571 2C14.0143 2.93185 13.6522 3.84575 13.005 4.51136C12.4242 5.23021 11.4242 5.77138 10.5006 5.66488Z" fill="white"/>
</svg>
