<svg width="12" height="12" viewBox="0 0 12 12" fill="none" xmlns="http://www.w3.org/2000/svg">
<path d="M2.33398 11.1719H9.44141C10.0547 11.1719 10.5137 11.0196 10.8184 10.7149C11.127 10.4141 11.2812 9.961 11.2812 9.35553V2.20123C11.2812 1.59576 11.127 1.14264 10.8184 0.841858C10.5137 0.53717 10.0547 0.384827 9.44141 0.384827H2.33398C1.7207 0.384827 1.25977 0.53717 0.951172 0.841858C0.646484 1.14264 0.494141 1.59576 0.494141 2.20123V9.35553C0.494141 9.961 0.646484 10.4141 0.951172 10.7149C1.25977 11.0196 1.7207 11.1719 2.33398 11.1719ZM9.00195 5.75787C9.00195 5.87897 8.94336 5.99811 8.82617 6.1153L6.79297 8.16022C6.70703 8.24615 6.59961 8.28912 6.4707 8.28912C6.3457 8.28912 6.24023 8.24615 6.1543 8.16022C6.07227 8.07428 6.03125 7.96881 6.03125 7.84381C6.03125 7.7149 6.07812 7.60553 6.17188 7.51569L6.92188 6.7774L7.6543 6.16217L6.37109 6.2149H3.23633C3.10352 6.2149 2.99414 6.17194 2.9082 6.086C2.82227 6.00006 2.7793 5.89069 2.7793 5.75787C2.7793 5.62506 2.82227 5.51569 2.9082 5.42975C2.99414 5.34381 3.10352 5.30084 3.23633 5.30084H6.37109L7.64844 5.35358L6.92188 4.7442L6.17188 4.00006C6.07812 3.9024 6.03125 3.79498 6.03125 3.6778C6.03125 3.5528 6.07227 3.44928 6.1543 3.36725C6.24023 3.28131 6.3457 3.23834 6.4707 3.23834C6.60352 3.23834 6.71094 3.27936 6.79297 3.36139L8.82617 5.40631C8.94336 5.5235 9.00195 5.64069 9.00195 5.75787Z" fill="#191919"/>
</svg>
