<svg width="10" height="16" viewBox="0 0 10 16" fill="none" xmlns="http://www.w3.org/2000/svg">
<path d="M0.585938 8.1543C0.585938 8.37402 0.665039 8.56738 0.832031 8.73438L7.80176 15.5459C7.95117 15.7041 8.14453 15.7832 8.37305 15.7832C8.83008 15.7832 9.18164 15.4404 9.18164 14.9834C9.18164 14.7549 9.08496 14.5615 8.94434 14.4121L2.5459 8.1543L8.94434 1.89648C9.08496 1.74707 9.18164 1.54492 9.18164 1.3252C9.18164 0.868164 8.83008 0.525391 8.37305 0.525391C8.14453 0.525391 7.95117 0.604492 7.80176 0.753906L0.832031 7.57422C0.665039 7.73242 0.585938 7.93457 0.585938 8.1543Z" fill="#C9C9C9"/>
</svg>
